<?xml version="1.0" encoding="UTF-8"?>
<svg version="1.1" xmlns="http://www.w3.org/2000/svg" width="280" height="280">
<path d="M0 0 C92.4 0 184.8 0 280 0 C280 92.4 280 184.8 280 280 C187.6 280 95.2 280 0 280 C0 187.6 0 95.2 0 0 Z " fill="#FEFEFE" transform="translate(0,0)"/>
<path d="M0 0 C1.27101563 -0.01095703 2.54203125 -0.02191406 3.8515625 -0.03320312 C14.33467599 0.0495583 14.33467599 0.0495583 19 4.5625 C20.35144654 7.26539308 20.11975165 9.36319806 20.11352539 12.38916016 C20.11344986 13.61027496 20.11337433 14.83138977 20.11329651 16.08950806 C20.10818952 17.42685995 20.10297352 18.76421143 20.09765625 20.1015625 C20.0957914 21.46633859 20.09436781 22.83111534 20.09336853 24.19589233 C20.08954863 27.78965093 20.07972283 31.38336917 20.06866455 34.97711182 C20.05843911 38.64358982 20.05386848 42.31007435 20.04882812 45.9765625 C20.0381001 53.17189341 20.02102999 60.36719105 20 67.5625 C19.01 68.0575 19.01 68.0575 18 68.5625 C17.34786708 70.58713255 17.34786708 70.58713255 17 72.5625 C18.32 72.5625 19.64 72.5625 21 72.5625 C21 71.9025 21 71.2425 21 70.5625 C22.051875 70.170625 23.10375 69.77875 24.1875 69.375 C27.96617922 67.75016793 30.18049963 65.58830528 33 62.5625 C46.36144395 50.23339719 46.36144395 50.23339719 52.203125 47.55078125 C54.35372381 46.63275409 54.35372381 46.63275409 55 43.5625 C56.77734375 41.73828125 56.77734375 41.73828125 58.9375 39.875 C59.64777344 39.25238281 60.35804688 38.62976563 61.08984375 37.98828125 C63 36.5625 63 36.5625 65 36.5625 C65 35.9025 65 35.2425 65 34.5625 C69.47058824 30.5625 69.47058824 30.5625 72 30.5625 C72 29.9025 72 29.2425 72 28.5625 C73.2578125 27.2578125 73.2578125 27.2578125 75.125 25.6875 C75.84429687 25.07777344 76.56359375 24.46804687 77.3046875 23.83984375 C78.63886719 22.71255859 78.63886719 22.71255859 80 21.5625 C81.17063818 20.54453904 82.33980968 19.52488993 83.5078125 18.50390625 C84.75507494 17.41911744 86.00247139 16.3344827 87.25 15.25 C87.85215332 14.72229004 88.45430664 14.19458008 89.07470703 13.65087891 C91.91116564 11.20146143 94.48825437 8.99675255 98 7.5625 C98 6.9025 98 6.2425 98 5.5625 C101.46153846 2.5625 101.46153846 2.5625 104 2.5625 C104 20.7125 104 38.8625 104 57.5625 C102.68 57.8925 101.36 58.2225 100 58.5625 C99.31261972 59.88527382 98.64954374 61.22074177 98 62.5625 C95.6796875 64.7109375 95.6796875 64.7109375 92.875 66.9375 C91.89015625 67.72382812 90.9053125 68.51015625 89.890625 69.3203125 C86.91563864 71.62793705 83.91623046 73.89100513 80.8515625 76.078125 C78.84865568 77.62836817 78.84865568 77.62836817 76.65625 79.90625 C73.85563275 82.70686725 70.9092202 85.27346673 67.875 87.8125 C67.31458008 88.28631104 66.75416016 88.76012207 66.17675781 89.24829102 C63.3985886 91.58889466 60.59982153 93.89367655 57.7421875 96.13671875 C56.75476563 96.91660156 55.76734375 97.69648438 54.75 98.5 C53.41195312 99.53447266 53.41195312 99.53447266 52.046875 100.58984375 C49.91834195 102.64119717 49.336183 103.67261917 49 106.5625 C49.825 107.01625 50.65 107.47 51.5 107.9375 C52.325 108.47375 53.15 109.01 54 109.5625 C54 110.2225 54 110.8825 54 111.5625 C54.59240479 111.83650635 55.18480957 112.1105127 55.79516602 112.39282227 C57.91694382 113.5184382 59.48676572 114.69001322 61.27734375 116.27734375 C62.17163086 117.05948242 62.17163086 117.05948242 63.08398438 117.85742188 C64.00147461 118.67049805 64.00147461 118.67049805 64.9375 119.5 C68.80942334 122.92847931 72.4894364 125.98618164 77 128.5625 C78.16165884 129.69096858 79.31917215 130.82450466 80.44140625 131.9921875 C86.80661436 138.40525432 93.82726251 144.14104587 100.84765625 149.8125 C103 151.5625 103 151.5625 104 152.5625 C104.0935919 154.28115409 104.11744611 156.00365744 104.11352539 157.72485352 C104.11341209 159.37645226 104.11341209 159.37645226 104.11329651 161.06141663 C104.10813522 162.2593132 104.10297394 163.45720978 104.09765625 164.69140625 C104.0962413 165.91077377 104.09482635 167.1301413 104.09336853 168.38645935 C104.08774967 172.2993307 104.07519396 176.21214581 104.0625 180.125 C104.05748743 182.77018147 104.0529241 185.41536383 104.04882812 188.06054688 C104.03777411 194.56121726 104.02101764 201.06185461 104 207.5625 C99.69513436 206.72607415 98.00842185 204.75215208 95 201.5625 C93.17618207 199.88542604 91.34267278 198.21883508 89.5 196.5625 C85.89391786 193.32107785 82.42278758 189.99600053 79 186.5625 C77.19980514 184.86187924 75.38705939 183.1744538 73.5625 181.5 C72.65628906 180.66339844 71.75007813 179.82679688 70.81640625 178.96484375 C68.00572177 176.56738057 65.08822055 174.58254942 62 172.5625 C60.28891311 170.94147032 58.62746694 169.26746537 57 167.5625 C52.03190222 162.37111692 46.88517275 157.72480795 41.19921875 153.32421875 C39.32557614 151.82330788 37.68096098 150.26789355 36 148.5625 C35.278125 148.0675 34.55625 147.5725 33.8125 147.0625 C32.9153125 146.32 32.9153125 146.32 32 145.5625 C32 144.5725 32 143.5825 32 142.5625 C30.9171875 142.1603125 30.9171875 142.1603125 29.8125 141.75 C27 140.5625 27 140.5625 24.3125 138.9375 C22.16188894 137.39214154 22.16188894 137.39214154 20 137.5625 C20 149.1125 20 160.6625 20 172.5625 C12.74 172.5625 5.48 172.5625 -2 172.5625 C-2 173.5525 -2 174.5425 -2 175.5625 C4.93 175.5625 11.86 175.5625 19 175.5625 C18.12650515 179.05647942 17.19458184 181.24887013 15.4375 184.3125 C14.75494141 185.51132812 14.75494141 185.51132812 14.05859375 186.734375 C13.70925781 187.33765625 13.35992187 187.9409375 13 188.5625 C12.34 188.5625 11.68 188.5625 11 188.5625 C10.75507812 189.41070312 10.51015625 190.25890625 10.2578125 191.1328125 C8.88245212 194.88301876 7.01618881 198.09331111 4.875 201.4375 C4.50246094 202.03046875 4.12992188 202.6234375 3.74609375 203.234375 C2.83635 204.6806343 1.91896202 206.12208046 1 207.5625 C-2.78570414 206.30059862 -3.21831571 205.01394185 -5.1875 201.625 C-5.71730469 200.72910156 -6.24710938 199.83320313 -6.79296875 198.91015625 C-8 196.5625 -8 196.5625 -8 194.5625 C-8.66 194.5625 -9.32 194.5625 -10 194.5625 C-10 193.9025 -10 193.2425 -10 192.5625 C-10.66 192.5625 -11.32 192.5625 -12 192.5625 C-12.33 190.5825 -12.66 188.6025 -13 186.5625 C-14.98 185.9025 -16.96 185.2425 -19 184.5625 C-19 181.5925 -19 178.6225 -19 175.5625 C-14.05 175.5625 -9.1 175.5625 -4 175.5625 C-4 174.5725 -4 173.5825 -4 172.5625 C-9.28 172.8925 -14.56 173.2225 -20 173.5625 C-21.38425411 170.79399177 -21.11959962 168.55830816 -21.11352539 165.46044922 C-21.11344986 164.17927216 -21.11337433 162.89809509 -21.11329651 161.57809448 C-21.10818948 160.17445843 -21.10297348 158.77082277 -21.09765625 157.3671875 C-21.09579146 155.93515065 -21.09436784 154.50311316 -21.09336853 153.07107544 C-21.08954819 149.29976646 -21.07972202 145.52849593 -21.06866455 141.75720215 C-21.05844005 137.90975464 -21.05386868 134.06230093 -21.04882812 130.21484375 C-21.03809933 122.66404497 -21.02102869 115.11327787 -21 107.5625 C-17.535 107.0675 -17.535 107.0675 -14 106.5625 C-14 105.2425 -14 103.9225 -14 102.5625 C-14.66 102.5625 -15.32 102.5625 -16 102.5625 C-16 101.9025 -16 101.2425 -16 100.5625 C-17.32 100.2325 -18.64 99.9025 -20 99.5625 C-20.02312392 89.40983849 -20.04091534 79.2571832 -20.05181217 69.10450077 C-20.05704089 64.39070267 -20.06413834 59.67692253 -20.07543945 54.96313477 C-20.08626873 50.41794596 -20.09227692 45.87277448 -20.09487724 41.32757378 C-20.09673142 39.58955042 -20.10035189 37.85152806 -20.10573006 36.11351204 C-20.11294103 33.68771405 -20.11399092 31.26198854 -20.11352539 28.83618164 C-20.11712067 28.11041931 -20.12071594 27.38465698 -20.12442017 26.63690186 C-20.11405216 21.67655216 -20.11405216 21.67655216 -19 20.5625 C-17.33382885 20.52186168 -15.66611905 20.519779 -14 20.5625 C-14 23.2025 -14 25.8425 -14 28.5625 C-13.34 28.5625 -12.68 28.5625 -12 28.5625 C-12 25.5925 -12 22.6225 -12 19.5625 C-14.31 19.5625 -16.62 19.5625 -19 19.5625 C-19.13563775 17.33502674 -19.23227853 15.10515677 -19.3125 12.875 C-19.37050781 11.63363281 -19.42851563 10.39226563 -19.48828125 9.11328125 C-19 5.5625 -19 5.5625 -17.35546875 2.640625 C-11.88896521 -0.74491619 -6.29045757 -0.11802583 0 0 Z " fill="#FDB903" transform="translate(98,35.4375)"/>
<path d="M0 0 C1.27101563 -0.01095703 2.54203125 -0.02191406 3.8515625 -0.03320312 C14.33467599 0.0495583 14.33467599 0.0495583 19 4.5625 C20.35144654 7.26539308 20.11975165 9.36319806 20.11352539 12.38916016 C20.11344986 13.61027496 20.11337433 14.83138977 20.11329651 16.08950806 C20.10818952 17.42685995 20.10297352 18.76421143 20.09765625 20.1015625 C20.0957914 21.46633859 20.09436781 22.83111534 20.09336853 24.19589233 C20.08954863 27.78965093 20.07972283 31.38336917 20.06866455 34.97711182 C20.05843911 38.64358982 20.05386848 42.31007435 20.04882812 45.9765625 C20.0381001 53.17189341 20.02102999 60.36719105 20 67.5625 C19.01 68.0575 19.01 68.0575 18 68.5625 C17.34786708 70.58713255 17.34786708 70.58713255 17 72.5625 C18.32 72.5625 19.64 72.5625 21 72.5625 C21 71.9025 21 71.2425 21 70.5625 C22.32 70.8925 23.64 71.2225 25 71.5625 C23.25395451 73.0255657 21.50300547 74.4827808 19.75 75.9375 C18.77546875 76.74960938 17.8009375 77.56171875 16.796875 78.3984375 C14.5447318 80.14101757 12.59288614 81.438916 10 82.5625 C10 83.2225 10 83.8825 10 84.5625 C8.42713316 85.97688406 6.78860004 87.31854401 5.125 88.625 C1.13649163 91.82303974 -2.79133884 95.05257663 -6.625 98.4375 C-7.85089844 99.51644531 -7.85089844 99.51644531 -9.1015625 100.6171875 C-11.22484701 102.50991853 -11.22484701 102.50991853 -12 105.5625 C-11.34 105.5625 -10.68 105.5625 -10 105.5625 C-8.31066078 107.2061814 -6.64740076 108.8767876 -5 110.5625 C-4.175 111.2225 -3.35 111.8825 -2.5 112.5625 C0.82341917 115.22123533 3.71975862 118.2250243 6.66015625 121.296875 C10.2115029 124.9496887 13.71500003 127.7679348 18 130.5625 C22.6875 134.9375 22.6875 134.9375 24 137.5625 C22.68 137.5625 21.36 137.5625 20 137.5625 C20 149.1125 20 160.6625 20 172.5625 C12.74 172.5625 5.48 172.5625 -2 172.5625 C-2 173.5525 -2 174.5425 -2 175.5625 C4.93 175.5625 11.86 175.5625 19 175.5625 C18.12650515 179.05647942 17.19458184 181.24887013 15.4375 184.3125 C14.75494141 185.51132812 14.75494141 185.51132812 14.05859375 186.734375 C13.70925781 187.33765625 13.35992187 187.9409375 13 188.5625 C12.34 188.5625 11.68 188.5625 11 188.5625 C10.75507812 189.41070312 10.51015625 190.25890625 10.2578125 191.1328125 C8.88245212 194.88301876 7.01618881 198.09331111 4.875 201.4375 C4.50246094 202.03046875 4.12992188 202.6234375 3.74609375 203.234375 C2.83635 204.6806343 1.91896202 206.12208046 1 207.5625 C-2.78570414 206.30059862 -3.21831571 205.01394185 -5.1875 201.625 C-5.71730469 200.72910156 -6.24710938 199.83320313 -6.79296875 198.91015625 C-8 196.5625 -8 196.5625 -8 194.5625 C-8.66 194.5625 -9.32 194.5625 -10 194.5625 C-10 193.9025 -10 193.2425 -10 192.5625 C-10.66 192.5625 -11.32 192.5625 -12 192.5625 C-12.33 190.5825 -12.66 188.6025 -13 186.5625 C-14.98 185.9025 -16.96 185.2425 -19 184.5625 C-19 181.5925 -19 178.6225 -19 175.5625 C-14.05 175.5625 -9.1 175.5625 -4 175.5625 C-4 174.5725 -4 173.5825 -4 172.5625 C-9.28 172.8925 -14.56 173.2225 -20 173.5625 C-21.38425411 170.79399177 -21.11959962 168.55830816 -21.11352539 165.46044922 C-21.11344986 164.17927216 -21.11337433 162.89809509 -21.11329651 161.57809448 C-21.10818948 160.17445843 -21.10297348 158.77082277 -21.09765625 157.3671875 C-21.09579146 155.93515065 -21.09436784 154.50311316 -21.09336853 153.07107544 C-21.08954819 149.29976646 -21.07972202 145.52849593 -21.06866455 141.75720215 C-21.05844005 137.90975464 -21.05386868 134.06230093 -21.04882812 130.21484375 C-21.03809933 122.66404497 -21.02102869 115.11327787 -21 107.5625 C-17.535 107.0675 -17.535 107.0675 -14 106.5625 C-14 105.2425 -14 103.9225 -14 102.5625 C-14.66 102.5625 -15.32 102.5625 -16 102.5625 C-16 101.9025 -16 101.2425 -16 100.5625 C-17.32 100.2325 -18.64 99.9025 -20 99.5625 C-20.02312392 89.40983849 -20.04091534 79.2571832 -20.05181217 69.10450077 C-20.05704089 64.39070267 -20.06413834 59.67692253 -20.07543945 54.96313477 C-20.08626873 50.41794596 -20.09227692 45.87277448 -20.09487724 41.32757378 C-20.09673142 39.58955042 -20.10035189 37.85152806 -20.10573006 36.11351204 C-20.11294103 33.68771405 -20.11399092 31.26198854 -20.11352539 28.83618164 C-20.11712067 28.11041931 -20.12071594 27.38465698 -20.12442017 26.63690186 C-20.11405216 21.67655216 -20.11405216 21.67655216 -19 20.5625 C-17.33382885 20.52186168 -15.66611905 20.519779 -14 20.5625 C-14 23.2025 -14 25.8425 -14 28.5625 C-13.34 28.5625 -12.68 28.5625 -12 28.5625 C-12 25.5925 -12 22.6225 -12 19.5625 C-14.31 19.5625 -16.62 19.5625 -19 19.5625 C-19.13563775 17.33502674 -19.23227853 15.10515677 -19.3125 12.875 C-19.37050781 11.63363281 -19.42851563 10.39226563 -19.48828125 9.11328125 C-19 5.5625 -19 5.5625 -17.35546875 2.640625 C-11.88896521 -0.74491619 -6.29045757 -0.11802583 0 0 Z " fill="#FDB804" transform="translate(98,35.4375)"/>
<path d="M0 0 C7.19548575 5.39661431 13.68158521 10.68158521 20 17 C21.2375 17.99 21.2375 17.99 22.5 19 C25.20692909 21.16554327 27.54927762 23.54927762 30 26 C31.831541 27.57824278 33.68092879 29.13059133 35.546875 30.66796875 C37 32 37 32 38 34 C38.08543895 36.10528933 38.10714725 38.21331157 38.09765625 40.3203125 C38.09515869 41.45227051 38.09266113 42.58422852 38.09008789 43.75048828 C38.08098389 45.19407715 38.07187988 46.63766602 38.0625 48.125 C38.041875 52.70375 38.02125 57.2825 38 62 C25.46 62 12.92 62 0 62 C0 41.54 0 21.08 0 0 Z " fill="#FDB903" transform="translate(79,144)"/>
<path d="M0 0 C0.66 0 1.32 0 2 0 C2 0.99 2 1.98 2 3 C3.32 3 4.64 3 6 3 C6 2.34 6 1.68 6 1 C7.32 1.33 8.64 1.66 10 2 C8.25395451 3.4630657 6.50300547 4.9202808 4.75 6.375 C3.77546875 7.18710938 2.8009375 7.99921875 1.796875 8.8359375 C-0.4552682 10.57851757 -2.40711386 11.876416 -5 13 C-5 13.66 -5 14.32 -5 15 C-6.57286684 16.41438406 -8.21139996 17.75604401 -9.875 19.0625 C-13.86350837 22.26053974 -17.79133884 25.49007663 -21.625 28.875 C-22.44226563 29.59429687 -23.25953125 30.31359375 -24.1015625 31.0546875 C-26.22484701 32.94741853 -26.22484701 32.94741853 -27 36 C-26.34 36 -25.68 36 -25 36 C-23.31066078 37.6436814 -21.64740076 39.3142876 -20 41 C-19.175 41.66 -18.35 42.32 -17.5 43 C-14.17658083 45.65873533 -11.28024138 48.6625243 -8.33984375 51.734375 C-4.7884971 55.3871887 -1.28499997 58.2054348 3 61 C7.6875 65.375 7.6875 65.375 9 68 C7.68 68 6.36 68 5 68 C5 79.55 5 91.1 5 103 C-2.26 103 -9.52 103 -17 103 C-17 103.99 -17 104.98 -17 106 C-10.07 106 -3.14 106 4 106 C3.12650515 109.49397942 2.19458184 111.68637013 0.4375 114.75 C-0.01753906 115.54921875 -0.47257812 116.3484375 -0.94140625 117.171875 C-1.29074219 117.77515625 -1.64007813 118.3784375 -2 119 C-2.66 119 -3.32 119 -4 119 C-4.24492188 119.84820312 -4.48984375 120.69640625 -4.7421875 121.5703125 C-6.11754788 125.32051876 -7.98381119 128.53081111 -10.125 131.875 C-10.49753906 132.46796875 -10.87007812 133.0609375 -11.25390625 133.671875 C-12.16365 135.1181343 -13.08103798 136.55958046 -14 138 C-17.78570414 136.73809862 -18.21831571 135.45144185 -20.1875 132.0625 C-20.71730469 131.16660156 -21.24710938 130.27070313 -21.79296875 129.34765625 C-23 127 -23 127 -23 125 C-23.66 125 -24.32 125 -25 125 C-25 124.34 -25 123.68 -25 123 C-25.66 123 -26.32 123 -27 123 C-27.495 120.03 -27.495 120.03 -28 117 C-29.98 116.34 -31.96 115.68 -34 115 C-34 112.03 -34 109.06 -34 106 C-29.05 106 -24.1 106 -19 106 C-19 105.01 -19 104.02 -19 103 C-26.92 103.495 -26.92 103.495 -35 104 C-36.38425411 101.23149177 -36.11959962 98.99580816 -36.11352539 95.89794922 C-36.11344986 94.61677216 -36.11337433 93.33559509 -36.11329651 92.01559448 C-36.10818948 90.61195843 -36.10297348 89.20832277 -36.09765625 87.8046875 C-36.09579146 86.37265065 -36.09436784 84.94061316 -36.09336853 83.50857544 C-36.08954819 79.73726646 -36.07972202 75.96599593 -36.06866455 72.19470215 C-36.05844005 68.34725464 -36.05386868 64.49980093 -36.04882812 60.65234375 C-36.03809933 53.10154497 -36.02102869 45.55077787 -36 38 C-32.535 37.505 -32.535 37.505 -29 37 C-29 35.68 -29 34.36 -29 33 C-29.66 33 -30.32 33 -31 33 C-31 32.34 -31 31.68 -31 31 C-31.66 30.67 -32.32 30.34 -33 30 C-32.34 30 -31.68 30 -31 30 C-30.73445313 29.40832031 -30.46890625 28.81664062 -30.1953125 28.20703125 C-26.76923811 21.88110959 -19.68116719 16.29679082 -14 12 C-13.34 12 -12.68 12 -12 12 C-12 11.34 -12 10.68 -12 10 C-10.23947136 8.41929472 -8.41580202 6.90833714 -6.5625 5.4375 C-5.55316406 4.63183594 -4.54382813 3.82617188 -3.50390625 2.99609375 C-2.67761719 2.33738281 -1.85132813 1.67867188 -1 1 C-0.67 0.67 -0.34 0.34 0 0 Z M-34 39 C-34 59.46 -34 79.92 -34 101 C-21.46 101 -8.92 101 4 101 C4.103125 96.483125 4.20625 91.96625 4.3125 87.3125 C4.35802002 85.89622314 4.40354004 84.47994629 4.45043945 83.02075195 C4.46292725 81.89628662 4.47541504 80.77182129 4.48828125 79.61328125 C4.51446533 78.46641846 4.54064941 77.31955566 4.56762695 76.13793945 C3.82851703 72.05201263 2.11716128 70.63900222 -1 68 C-1.6084375 67.46375 -2.216875 66.9275 -2.84375 66.375 C-3.3903125 65.92125 -3.936875 65.4675 -4.5 65 C-8.27833002 61.79538604 -11.84517905 58.55303507 -14.8125 54.5625 C-17.23577654 51.72380463 -19.81822996 49.79629399 -22.83203125 47.625 C-25.85440852 45.35957848 -28.63343404 42.85196375 -31.43359375 40.3203125 C-32.78599868 38.89258534 -32.78599868 38.89258534 -34 39 Z " fill="#FEEEB4" transform="translate(113,105)"/>
<path d="M0 0 C1.27101563 -0.01095703 2.54203125 -0.02191406 3.8515625 -0.03320312 C14.33467599 0.0495583 14.33467599 0.0495583 19 4.5625 C20.35144654 7.26539308 20.11975165 9.36319806 20.11352539 12.38916016 C20.11344986 13.61027496 20.11337433 14.83138977 20.11329651 16.08950806 C20.10818952 17.42685995 20.10297352 18.76421143 20.09765625 20.1015625 C20.0957914 21.46633859 20.09436781 22.83111534 20.09336853 24.19589233 C20.08954863 27.78965093 20.07972283 31.38336917 20.06866455 34.97711182 C20.05843911 38.64358982 20.05386848 42.31007435 20.04882812 45.9765625 C20.0381001 53.17189341 20.02102999 60.36719105 20 67.5625 C19.01 67.0675 19.01 67.0675 18 66.5625 C18.33 54.3525 18.66 42.1425 19 29.5625 C6.79 29.8925 -5.42 30.2225 -18 30.5625 C-18.33 53.0025 -18.66 75.4425 -19 98.5625 C-17.515 98.0675 -17.515 98.0675 -16 97.5625 C-16 98.2225 -16 98.8825 -16 99.5625 C-17.485 100.0575 -17.485 100.0575 -19 100.5625 C-20.6939938 98.8685062 -20.1258158 96.75957562 -20.13552856 94.49920654 C-20.13350433 93.77501526 -20.1314801 93.05082397 -20.12939453 92.3046875 C-20.13114685 91.54536926 -20.13289917 90.78605103 -20.13470459 90.00372314 C-20.1391233 87.48162584 -20.13618506 84.95959807 -20.1328125 82.4375 C-20.13348553 80.69254544 -20.13445555 78.94759096 -20.13571167 77.20263672 C-20.13718867 73.54068105 -20.13503403 69.87874972 -20.13037109 66.21679688 C-20.1246738 61.51205508 -20.1279528 56.80737032 -20.13394356 52.10263062 C-20.13754912 48.49796109 -20.13641061 44.89330518 -20.13381577 41.28863525 C-20.13314648 39.55340569 -20.13397496 37.81817491 -20.13629532 36.08294678 C-20.13882177 33.66203513 -20.13498138 31.24121714 -20.12939453 28.8203125 C-20.13141876 28.09612122 -20.13344299 27.37192993 -20.13552856 26.62579346 C-20.11426266 21.67676266 -20.11426266 21.67676266 -19 20.5625 C-17.33382885 20.52186168 -15.66611905 20.519779 -14 20.5625 C-14 23.2025 -14 25.8425 -14 28.5625 C-13.34 28.5625 -12.68 28.5625 -12 28.5625 C-12 25.5925 -12 22.6225 -12 19.5625 C-14.31 19.5625 -16.62 19.5625 -19 19.5625 C-19.13563775 17.33502674 -19.23227853 15.10515677 -19.3125 12.875 C-19.37050781 11.63363281 -19.42851563 10.39226563 -19.48828125 9.11328125 C-19 5.5625 -19 5.5625 -17.35546875 2.640625 C-11.88896521 -0.74491619 -6.29045757 -0.11802583 0 0 Z " fill="#FCB904" transform="translate(98,35.4375)"/>
<path d="M0 0 C11.88 0 23.76 0 36 0 C34.47903372 3.80241571 32.85989732 7.36474615 31 11 C30.34 11 29.68 11 29 11 C28.63261719 12.27230469 28.63261719 12.27230469 28.2578125 13.5703125 C26.88245212 17.32051876 25.01618881 20.53081111 22.875 23.875 C22.50246094 24.46796875 22.12992188 25.0609375 21.74609375 25.671875 C20.83635 27.1181343 19.91896202 28.55958046 19 30 C15.21429586 28.73809862 14.78168429 27.45144185 12.8125 24.0625 C12.28269531 23.16660156 11.75289062 22.27070313 11.20703125 21.34765625 C10 19 10 19 10 17 C9.34 17 8.68 17 8 17 C8 16.34 8 15.68 8 15 C7.34 15 6.68 15 6 15 C5.566875 13.7625 5.13375 12.525 4.6875 11.25 C3.50158931 8.04804113 2.10026213 5.70033702 0 3 C0 2.01 0 1.02 0 0 Z " fill="#FCB905" transform="translate(80,213)"/>
<path d="M0 0 C0.33 0 0.66 0 1 0 C1 4.29 1 8.58 1 13 C13.54 13 26.08 13 39 13 C39 29.17 39 45.34 39 62 C38.01 61.505 38.01 61.505 37 61 C37.33 48.79 37.66 36.58 38 24 C25.79 24.33 13.58 24.66 1 25 C0.67 47.44 0.34 69.88 0 93 C1.485 92.505 1.485 92.505 3 92 C3 92.66 3 93.32 3 94 C1.515 94.495 1.515 94.495 0 95 C-1.6939938 93.3060062 -1.1258158 91.19707562 -1.13552856 88.93670654 C-1.13350433 88.21251526 -1.1314801 87.48832397 -1.12939453 86.7421875 C-1.13114685 85.98286926 -1.13289917 85.22355103 -1.13470459 84.44122314 C-1.1391233 81.91912584 -1.13618506 79.39709807 -1.1328125 76.875 C-1.13348553 75.13004544 -1.13445555 73.38509096 -1.13571167 71.64013672 C-1.13718867 67.97818105 -1.13503403 64.31624972 -1.13037109 60.65429688 C-1.1246738 55.94955508 -1.1279528 51.24487032 -1.13394356 46.54013062 C-1.13754912 42.93546109 -1.13641061 39.33080518 -1.13381577 35.72613525 C-1.13314648 33.99090569 -1.13397496 32.25567491 -1.13629532 30.52044678 C-1.13882177 28.09953513 -1.13498138 25.67871714 -1.12939453 23.2578125 C-1.13141876 22.53362122 -1.13344299 21.80942993 -1.13552856 21.06329346 C-1.11426266 16.11426266 -1.11426266 16.11426266 0 15 C1.66617115 14.95936168 3.33388095 14.957279 5 15 C5 17.64 5 20.28 5 23 C5.66 23 6.32 23 7 23 C7 20.03 7 17.06 7 14 C4.69 14 2.38 14 0 14 C0 9.38 0 4.76 0 0 Z " fill="#F6E489" transform="translate(79,41)"/>
<path d="M0 0 C0.66 0 1.32 0 2 0 C2 0.99 2 1.98 2 3 C3.32 3 4.64 3 6 3 C6 2.34 6 1.68 6 1 C7.32 1.33 8.64 1.66 10 2 C8.25395451 3.4630657 6.50300547 4.9202808 4.75 6.375 C3.77546875 7.18710938 2.8009375 7.99921875 1.796875 8.8359375 C-0.4552682 10.57851757 -2.40711386 11.876416 -5 13 C-5 13.66 -5 14.32 -5 15 C-6.61382948 16.45659977 -8.29363216 17.84048951 -10 19.1875 C-14.25041992 22.56814287 -18.31422685 26.04011672 -22.24609375 29.78515625 C-24 31 -24 31 -28 31 C-28.33 32.32 -28.66 33.64 -29 35 C-29 34.34 -29 33.68 -29 33 C-29.66 33 -30.32 33 -31 33 C-31 32.34 -31 31.68 -31 31 C-31.66 30.67 -32.32 30.34 -33 30 C-32.34 30 -31.68 30 -31 30 C-30.73445313 29.40832031 -30.46890625 28.81664062 -30.1953125 28.20703125 C-26.76923811 21.88110959 -19.68116719 16.29679082 -14 12 C-13.34 12 -12.68 12 -12 12 C-12 11.34 -12 10.68 -12 10 C-10.23947136 8.41929472 -8.41580202 6.90833714 -6.5625 5.4375 C-5.55316406 4.63183594 -4.54382813 3.82617188 -3.50390625 2.99609375 C-2.67761719 2.33738281 -1.85132812 1.67867188 -1 1 C-0.67 0.67 -0.34 0.34 0 0 Z " fill="#FDF7D8" transform="translate(113,105)"/>
<path d="M0 0 C2.31 1.65 4.62 3.3 7 5 C5 6 5 6 2 6 C1.67 24.15 1.34 42.3 1 61 C12.88 61 24.76 61 37 61 C37 57.37 37 53.74 37 50 C36.01 50 35.02 50 34 50 C34 49.34 34 48.68 34 48 C34.66 48 35.32 48 36 48 C36 46.68 36 45.36 36 44 C35.01 44.33 34.02 44.66 33 45 C33 43.35 33 41.7 33 40 C33.99 40 34.98 40 36 40 C36 38.35 36 36.7 36 35 C35.01 35 34.02 35 33 35 C33 33.68 33 32.36 33 31 C31.68 31 30.36 31 29 31 C28.34 30.01 27.68 29.02 27 28 C26.34 28 25.68 28 25 28 C25 27.34 25 26.68 25 26 C24.34 26 23.68 26 23 26 C23 25.34 23 24.68 23 24 C21.35 23.67 19.7 23.34 18 23 C17.79375 22.05125 17.5875 21.1025 17.375 20.125 C16.29166667 16.70833333 16.29166667 16.70833333 12.875 15.625 C11.92625 15.41875 10.9775 15.2125 10 15 C10.33 13.35 10.66 11.7 11 10 C15.2867564 11.79445617 17.75960406 13.65826936 20.59375 17.328125 C23.90489594 21.26470962 28.10530692 24.41078527 32.03515625 27.70703125 C32.66292969 28.23683594 33.29070312 28.76664063 33.9375 29.3125 C34.50339844 29.78300781 35.06929687 30.25351563 35.65234375 30.73828125 C37.78037211 32.73060925 37.99448322 33.86406181 38.11352539 36.79736328 C38.10828857 37.95993652 38.10305176 39.12250977 38.09765625 40.3203125 C38.09515869 41.45227051 38.09266113 42.58422852 38.09008789 43.75048828 C38.08098389 45.19407715 38.07187988 46.63766602 38.0625 48.125 C38.041875 52.70375 38.02125 57.2825 38 62 C25.46 62 12.92 62 0 62 C0 41.54 0 21.08 0 0 Z " fill="#F8B90C" transform="translate(79,144)"/>
<path d="M0 0 C8.56231266 0.20386459 14.12940105 7.95554436 19.65234375 13.7265625 C22.47302262 16.6274795 24.89335007 18.93482504 28.375 21.0625 C31 23 31 23 31.875 26.25 C31.91625 27.1575 31.9575 28.065 32 29 C24.59132452 28.07391557 18.92134942 24.48378935 14 19 C13.401875 18.443125 12.80375 17.88625 12.1875 17.3125 C11 16 11 16 11 14 C10.236875 13.731875 9.47375 13.46375 8.6875 13.1875 C4.48570067 11.330891 2.75636386 8.90131709 0.8125 4.8125 C0.46832031 4.09707031 0.12414062 3.38164062 -0.23046875 2.64453125 C-0.48441406 2.10183594 -0.73835938 1.55914062 -1 1 C-0.67 0.67 -0.34 0.34 0 0 Z " fill="#FDF8DA" transform="translate(85,143)"/>
<path d="M0 0 C1.44905657 -0.0165625 2.89803134 -0.04385741 4.34667969 -0.08203125 C6.4447631 -0.1369674 8.54094157 -0.15869296 10.63964844 -0.17333984 C11.89310059 -0.19315918 13.14655273 -0.21297852 14.43798828 -0.23339844 C18.71833523 0.50866084 20.17514446 1.95616263 22.80371094 5.35009766 C23.29199219 8.90087891 23.29199219 8.90087891 23.11621094 12.66259766 C23.07109375 13.91685547 23.02597656 15.17111328 22.97949219 16.46337891 C22.89248047 17.89230469 22.89248047 17.89230469 22.80371094 19.35009766 C22.47371094 19.35009766 22.14371094 19.35009766 21.80371094 19.35009766 C21.77792969 18.36267578 21.75214844 17.37525391 21.72558594 16.35791016 C21.66886719 15.07658203 21.61214844 13.79525391 21.55371094 12.47509766 C21.50730469 11.19892578 21.46089844 9.92275391 21.41308594 8.60791016 C21.18279613 5.26967359 21.18279613 5.26967359 18.81933594 3.96728516 C18.15417969 3.76361328 17.48902344 3.55994141 16.80371094 3.35009766 C16.30871094 2.85509766 16.30871094 2.85509766 15.80371094 2.35009766 C11.20661729 2.03957004 6.59749691 2.07161749 1.99121094 2.03759766 C0.69376953 2.00859375 -0.60367188 1.97958984 -1.94042969 1.94970703 C-3.18630859 1.94132812 -4.4321875 1.93294922 -5.71582031 1.92431641 C-6.86155518 1.90973389 -8.00729004 1.89515137 -9.18774414 1.88012695 C-12.85055939 2.45230251 -14.00266345 3.40941282 -16.19628906 6.35009766 C-16.89408288 9.84282017 -16.89408288 9.84282017 -16.94628906 13.60009766 C-17.00300781 14.86337891 -17.05972656 16.12666016 -17.11816406 17.42822266 C-17.14394531 18.39244141 -17.16972656 19.35666016 -17.19628906 20.35009766 C-14.88628906 20.35009766 -12.57628906 20.35009766 -10.19628906 20.35009766 C-10.19628906 23.32009766 -10.19628906 26.29009766 -10.19628906 29.35009766 C-10.85628906 29.35009766 -11.51628906 29.35009766 -12.19628906 29.35009766 C-12.19628906 26.71009766 -12.19628906 24.07009766 -12.19628906 21.35009766 C-13.84628906 21.68009766 -15.49628906 22.01009766 -17.19628906 22.35009766 C-17.21942635 32.48548843 -17.23721125 42.62087295 -17.24810123 52.75628471 C-17.25332702 57.46220709 -17.26041917 62.16811144 -17.27172852 66.87402344 C-17.28256818 71.41273298 -17.2885682 75.95142515 -17.29116631 80.49014664 C-17.2930186 82.2245524 -17.29663549 83.95895717 -17.30201912 85.69335556 C-17.30924385 88.11655507 -17.31027939 90.53968214 -17.30981445 92.96289062 C-17.31340973 93.68505768 -17.317005 94.40722473 -17.32070923 95.15127563 C-17.36798152 98.87517203 -17.36798152 98.87517203 -16.19628906 102.35009766 C-17.18628906 102.02009766 -18.17628906 101.69009766 -19.19628906 101.35009766 C-19.69128906 53.83009766 -19.69128906 53.83009766 -20.19628906 5.35009766 C-19.20628906 5.35009766 -18.21628906 5.35009766 -17.19628906 5.35009766 C-17.09316406 4.71072266 -16.99003906 4.07134766 -16.88378906 3.41259766 C-16.65691406 2.73197266 -16.43003906 2.05134766 -16.19628906 1.35009766 C-10.99849002 -0.38250203 -5.44192011 0.04557516 0 0 Z " fill="#FEFBD7" transform="translate(96.1962890625,34.64990234375)"/>
<path d="M0 0 C1.56047445 0.00015913 3.12095416 0.00585397 4.68139648 0.01586914 C5.91115456 0.01799156 5.91115456 0.01799156 7.16575623 0.02015686 C9.79470406 0.0257725 12.42356797 0.0383276 15.05249023 0.05102539 C16.8304838 0.05603838 18.60847869 0.06060163 20.38647461 0.06469727 C24.75434569 0.07574701 29.12215371 0.09302208 33.48999023 0.11352539 C33.58894849 5.30959525 33.66150016 10.50511537 33.7097168 15.7019043 C33.72981874 17.46925411 33.75710495 19.23653752 33.79174805 21.00366211 C33.84033032 23.54565824 33.86297249 26.08677435 33.88061523 28.62915039 C33.90126038 29.41783508 33.92190552 30.20651978 33.94317627 31.019104 C33.94469501 34.74132551 33.83015963 36.68835466 31.46557617 39.64379883 C30.81363281 40.12880859 30.16168945 40.61381836 29.48999023 41.11352539 C29.48999023 40.12352539 29.48999023 39.13352539 29.48999023 38.11352539 C30.14999023 38.11352539 30.80999023 38.11352539 31.48999023 38.11352539 C31.81999023 25.90352539 32.14999023 13.69352539 32.48999023 1.11352539 C15.16499023 1.60852539 15.16499023 1.60852539 -2.51000977 2.11352539 C-2.84000977 22.90352539 -3.17000977 43.69352539 -3.51000977 65.11352539 C-2.52000977 65.11352539 -1.53000977 65.11352539 -0.51000977 65.11352539 C-0.51000977 64.45352539 -0.51000977 63.79352539 -0.51000977 63.11352539 C0.80999023 63.44352539 2.12999023 63.77352539 3.48999023 64.11352539 C-2.26000977 69.11352539 -2.26000977 69.11352539 -4.51000977 69.11352539 C-4.53313565 60.26470149 -4.5509261 51.41588792 -4.56182194 42.56704044 C-4.56705023 38.45858254 -4.57414689 34.35014525 -4.58544922 30.24169922 C-4.59628002 26.28005711 -4.60228701 22.31843487 -4.60488701 18.3567791 C-4.60674091 16.84204228 -4.61036086 15.3273066 -4.61573982 13.8125782 C-4.62295284 11.69810726 -4.6240006 9.58371945 -4.62353516 7.46923828 C-4.62575577 6.2634462 -4.62797638 5.05765411 -4.63026428 3.81532288 C-4.44902068 -0.25673635 -4.20540775 0.13601687 0 0 Z " fill="#EDBC20" transform="translate(83.510009765625,64.886474609375)"/>
<path d="M0 0 C1.32 0 2.64 0 4 0 C4.2959696 7.68529409 4.54309269 15.37106485 4.75683594 23.05908203 C4.83519327 25.67239626 4.92459345 28.28540427 5.02539062 30.89794922 C5.16863066 34.66086501 5.27167969 38.42310677 5.3671875 42.1875 C5.42002899 43.34926758 5.47287048 44.51103516 5.52731323 45.70800781 C5.67155944 53.46168513 4.27898064 57.37627181 -1 63 C-1.66 63.99 -2.32 64.98 -3 66 C-4.66608987 66.04384447 -6.33380554 66.0396713 -8 66 C-9.35414909 66.62329967 -10.69205572 67.28480494 -12 68 C-8.33133644 63.4857225 -4.66465192 59.49848894 0 56 C0.66 56 1.32 56 2 56 C2 37.85 2 19.7 2 1 C1.34 0.67 0.68 0.34 0 0 Z " fill="#FAEDC3" transform="translate(200,37)"/>
<path d="M0 0 C0.99 0.33 1.98 0.66 3 1 C4.24311041 4.10820329 4.07943329 7.16354662 3.98999023 10.47119141 C3.96343857 11.56557526 3.9368869 12.65995911 3.90953064 13.7875061 C3.87622147 14.96364471 3.84291229 16.13978333 3.80859375 17.3515625 C3.75039494 19.83593151 3.69246017 22.32030672 3.63476562 24.8046875 C3.53743049 28.72667745 3.43686647 32.6485352 3.33129883 36.5703125 C3.23160941 40.35140672 3.14432412 44.1326298 3.05859375 47.9140625 C3.02326035 49.09424957 2.98792694 50.27443665 2.95152283 51.49038696 C2.91642357 53.12250626 2.91642357 53.12250626 2.88061523 54.78759766 C2.85539291 55.74816071 2.83017059 56.70872375 2.80418396 57.69839478 C2.76773512 60.19748096 2.76773512 60.19748096 5 62 C4.67 62.99 4.34 63.98 4 65 C3.01 64.67 2.02 64.34 1 64 C0.67 61.69 0.34 59.38 0 57 C-0.99 57 -1.98 57 -3 57 C-3 56.34 -3 55.68 -3 55 C-1.68 55.33 -0.36 55.66 1 56 C0.67 37.52 0.34 19.04 0 0 Z " fill="#FAEFC7" transform="translate(201,187)"/>
<path d="M0 0 C2.31 1.65 4.62 3.3 7 5 C5 6 5 6 2 6 C1.67 24.15 1.34 42.3 1 61 C12.88 61 24.76 61 37 61 C37 52.09 37 43.18 37 34 C37.33 34 37.66 34 38 34 C38 43.24 38 52.48 38 62 C25.46 62 12.92 62 0 62 C0 41.54 0 21.08 0 0 Z " fill="#EDB831" transform="translate(79,144)"/>
<path d="M0 0 C1.27552734 -0.01998047 2.55105469 -0.03996094 3.86523438 -0.06054688 C5.70891602 -0.05958008 5.70891602 -0.05958008 7.58984375 -0.05859375 C8.71124756 -0.06044678 9.83265137 -0.0622998 10.98803711 -0.06420898 C14.71995614 0.54478757 16.3755252 1.83017079 19.0625 4.4375 C21.15481398 8.62212795 20.0625 13.75894372 20.0625 18.4375 C7.5225 18.4375 -5.0175 18.4375 -17.9375 18.4375 C-17.9375 13.4875 -17.9375 8.5375 -17.9375 3.4375 C-12.1492878 -0.90365915 -7.0474483 -0.03905387 0 0 Z M-13.9375 1.4375 C-14.2675 2.4275 -14.5975 3.4175 -14.9375 4.4375 C-15.9275 4.9325 -15.9275 4.9325 -16.9375 5.4375 C-16.9375 9.3975 -16.9375 13.3575 -16.9375 17.4375 C-5.3875 17.4375 6.1625 17.4375 18.0625 17.4375 C17.5675 11.4975 17.5675 11.4975 17.0625 5.4375 C15.7425 4.7775 14.4225 4.1175 13.0625 3.4375 C13.0625 2.7775 13.0625 2.1175 13.0625 1.4375 C4.1525 1.4375 -4.7575 1.4375 -13.9375 1.4375 Z " fill="#EDBD35" transform="translate(97.9375,35.5625)"/>
<path d="M0 0 C0 3.6408385 -1.10652063 4.94130256 -3 8 C-3.69822617 9.65369357 -4.37498605 11.31727014 -5 13 C-6.134375 13.12375 -7.26875 13.2475 -8.4375 13.375 C-10.2009375 13.684375 -10.2009375 13.684375 -12 14 C-12.33 14.66 -12.66 15.32 -13 16 C-12.01 16 -11.02 16 -10 16 C-10 17.32 -10 18.64 -10 20 C-11.32 19.67 -12.64 19.34 -14 19 C-13.50168276 22.68754757 -12.89932357 24.60490662 -10 27 C-10.33 27.66 -10.66 28.32 -11 29 C-12.1725131 28.04882866 -13.33787015 27.08882991 -14.5 26.125 C-15.1496875 25.59132812 -15.799375 25.05765625 -16.46875 24.5078125 C-17.22671875 23.76144531 -17.22671875 23.76144531 -18 23 C-18 22.34 -18 21.68 -18 21 C-18.66 21 -19.32 21 -20 21 C-19.53504425 16.6966861 -17.09008984 14.94113762 -13.9375 12.1875 C-12.95007813 11.31738281 -11.96265625 10.44726562 -10.9453125 9.55078125 C-9.48738281 8.28814453 -9.48738281 8.28814453 -8 7 C-7.17242187 6.27167969 -6.34484375 5.54335937 -5.4921875 4.79296875 C-3.66787379 3.18770346 -1.83754364 1.59008075 0 0 Z " fill="#FAB908" transform="translate(106,120)"/>
<path d="M0 0 C1.2065625 0.0309375 1.2065625 0.0309375 2.4375 0.0625 C2.4375 2.7025 2.4375 5.3425 2.4375 8.0625 C0.7875 8.0625 -0.8625 8.0625 -2.5625 8.0625 C-2.5625 31.1625 -2.5625 54.2625 -2.5625 78.0625 C-1.0775 77.5675 -1.0775 77.5675 0.4375 77.0625 C0.4375 77.7225 0.4375 78.3825 0.4375 79.0625 C-1.0475 79.5575 -1.0475 79.5575 -2.5625 80.0625 C-4.2564938 78.3685062 -3.6883158 76.25957562 -3.69802856 73.99920654 C-3.69600433 73.27501526 -3.6939801 72.55082397 -3.69189453 71.8046875 C-3.69364685 71.04536926 -3.69539917 70.28605103 -3.69720459 69.50372314 C-3.7016233 66.98162584 -3.69868506 64.45959807 -3.6953125 61.9375 C-3.69598553 60.19254544 -3.69695555 58.44759096 -3.69821167 56.70263672 C-3.69968867 53.04068105 -3.69753403 49.37874972 -3.69287109 45.71679688 C-3.6871738 41.01205508 -3.6904528 36.30737032 -3.69644356 31.60263062 C-3.70004912 27.99796109 -3.69891061 24.39330518 -3.69631577 20.78863525 C-3.69564648 19.05340569 -3.69647496 17.31817491 -3.69879532 15.58294678 C-3.70132177 13.16203513 -3.69748138 10.74121714 -3.69189453 8.3203125 C-3.69391876 7.59612122 -3.69594299 6.87192993 -3.69802856 6.12579346 C-3.67209099 0.08956319 -3.67209099 0.08956319 0 0 Z " fill="#FDEE9F" transform="translate(81.5625,55.9375)"/>
<path d="M0 0 C0.5775 0.2475 1.155 0.495 1.75 0.75 C-3.25 5.75 -3.25 5.75 -5.0625 7.375 C-6.57680994 8.82561063 -6.57680994 8.82561063 -6.25 11.75 C-4.60178756 12.78013277 -2.93496298 13.78114628 -1.25 14.75 C-1.25 15.41 -1.25 16.07 -1.25 16.75 C-0.65759521 17.02400635 -0.06519043 17.2980127 0.54516602 17.58032227 C2.66694382 18.7059382 4.23676572 19.87751322 6.02734375 21.46484375 C6.62353516 21.98626953 7.21972656 22.50769531 7.83398438 23.04492188 C8.44564453 23.58697266 9.05730469 24.12902344 9.6875 24.6875 C13.5608695 28.11725985 17.24372619 31.16482187 21.75 33.75 C24.49891247 36.30712788 26.66553426 38.6233014 28.75 41.75 C25.75 41.75 25.75 41.75 24 40.0625 C23.2575 39.299375 22.515 38.53625 21.75 37.75 C20.61821461 36.9180432 19.47110361 36.10668382 18.3125 35.3125 C14.26845561 32.49549472 11.01199607 29.12672299 7.6875 25.5 C5.90356475 23.60578763 5.90356475 23.60578763 3.625 23.25 C3.00625 23.085 2.3875 22.92 1.75 22.75 C1.06513275 21.42592331 0.40129797 20.09090759 -0.25 18.75 C-2.92638824 16.34811312 -4.8265618 14.89114607 -8.25 13.75 C-9.23629017 10.61180401 -9.46925401 9.22312707 -8.0625 6.1875 C-3.19736842 -0.35526316 -3.19736842 -0.35526316 0 0 Z " fill="#EBC237" transform="translate(153.25,130.25)"/>
<path d="M0 0 C0.99 0.66 1.98 1.32 3 2 C3.36076355 4.32852173 3.36076355 4.32852173 3.34057617 7.27587891 C3.34034958 8.3768692 3.34012299 9.4778595 3.33988953 10.61221313 C3.32440567 11.80494843 3.30892181 12.99768372 3.29296875 14.2265625 C3.28872391 15.44451508 3.28447906 16.66246765 3.28010559 17.91732788 C3.26326831 21.82010704 3.22560595 25.72237604 3.1875 29.625 C3.17245974 32.26561756 3.15877019 34.90624319 3.14648438 37.546875 C3.11334822 44.03142504 3.06309861 50.51567608 3 57 C-1.31967519 56.15425307 -2.95386986 54.18781061 -6 51 C-8.29933066 48.95934404 -10.64447835 46.97537983 -13 45 C-11.265625 44.29296875 -11.265625 44.29296875 -9 44 C-6.859375 45.36328125 -6.859375 45.36328125 -4.75 47.3125 C-4.04359375 47.94800781 -3.3371875 48.58351562 -2.609375 49.23828125 C-1 51 -1 51 -1 53 C-0.34 53 0.32 53 1 53 C1.02537362 46.25562341 1.04287685 39.51125916 1.05493164 32.7668457 C1.05995761 30.47289571 1.06677938 28.17894892 1.07543945 25.88500977 C1.08758096 22.58609222 1.09324572 19.28721707 1.09765625 15.98828125 C1.10281754 14.96414627 1.10797882 13.94001129 1.11329651 12.88484192 C1.11337204 11.92422348 1.11344757 10.96360504 1.11352539 9.97387695 C1.11685631 8.71145927 1.11685631 8.71145927 1.12025452 7.42353821 C0.99333791 4.86573618 0.56187588 2.49545389 0 0 Z " fill="#E7BE29" transform="translate(199,186)"/>
<path d="M0 0 C11.88 0 23.76 0 36 0 C34.47903372 3.80241571 32.85989732 7.36474615 31 11 C30.34 11 29.68 11 29 11 C28.34 12.98 27.68 14.96 27 17 C25.90341064 13.71023192 26.20046862 12.28696233 27 9 C28.32 9 29.64 9 31 9 C30.979375 8.030625 30.95875 7.06125 30.9375 6.0625 C31 3 31 3 32 2 C22.43 1.67 12.86 1.34 3 1 C3.99 2.98 4.98 4.96 6 7 C5.6875 9.375 5.6875 9.375 5 11 C4.15841464 9.73461631 3.32700252 8.46246221 2.5 7.1875 C1.80390625 6.12595703 1.80390625 6.12595703 1.09375 5.04296875 C0 3 0 3 0 0 Z " fill="#ECBC2D" transform="translate(80,213)"/>
<path d="M0 0 C2.91691525 -0.05401695 5.83282724 -0.09368066 8.75 -0.125 C9.575 -0.14175781 10.4 -0.15851563 11.25 -0.17578125 C12.04921875 -0.18222656 12.8484375 -0.18867188 13.671875 -0.1953125 C14.4050293 -0.20578613 15.13818359 -0.21625977 15.89355469 -0.22705078 C18.29896076 0.03222456 19.91251494 0.80774075 22 2 C21.66009167 7.37992836 21.31442207 11.53273547 18 16 C17.01 15.67 16.02 15.34 15 15 C17 11 19 7 21 3 C14.07 3 7.14 3 0 3 C0 2.01 0 1.02 0 0 Z " fill="#FEFCF6" transform="translate(96,208)"/>
<path d="M0 0 C0.33 0 0.66 0 1 0 C1 21.12 1 42.24 1 64 C1.99 64 2.98 64 4 64 C4 63.34 4 62.68 4 62 C5.32 62.33 6.64 62.66 8 63 C2.25 68 2.25 68 0 68 C0 45.56 0 23.12 0 0 Z " fill="#E8BB3A" transform="translate(79,66)"/>
<path d="M0 0 C0.33 0.66 0.66 1.32 1 2 C-0.51647699 3.51647699 -2.01806702 5.01598236 -3.625 6.4375 C-5.22320509 8.25364215 -5.59344055 9.64195518 -6 12 C-5.34 12 -4.68 12 -4 12 C-4 12.66 -4 13.32 -4 14 C-6.475 13.01 -6.475 13.01 -9 12 C-11.08333079 13.74934898 -11.08333079 13.74934898 -13 16 C-13 17.32 -13 18.64 -13 20 C-15.475 19.01 -15.475 19.01 -18 18 C-17.26287302 11.98012969 -11.37911859 8.61921272 -7 5 C-4.70756494 3.24838589 -2.39368699 1.61313689 0 0 Z " fill="#FCFAEB" transform="translate(164,124)"/>
<path d="M0 0 C0.66 0 1.32 0 2 0 C2 18.15 2 36.3 2 55 C0.02 55.495 0.02 55.495 -2 56 C-2.69937532 57.31647119 -3.36729133 58.65022151 -4 60 C-5.485 60.495 -5.485 60.495 -7 61 C-6.01 58.03 -6.01 58.03 -5 55 C-2.03 54.505 -2.03 54.505 1 54 C1 36.84 1 19.68 1 2 C0.34 1.67 -0.32 1.34 -1 1 C-0.67 0.67 -0.34 0.34 0 0 Z " fill="#E5BF2D" transform="translate(200,38)"/>
<path d="M0 0 C0.66 0.33 1.32 0.66 2 1 C1.54625 1.556875 1.0925 2.11375 0.625 2.6875 C-1.09619465 4.90425378 -1.09619465 4.90425378 -1.8203125 7.4375 C-3.24337289 10.52865105 -4.64371773 11.51804993 -7.5 13.3125 C-8.2940625 13.82425781 -9.088125 14.33601563 -9.90625 14.86328125 C-12 16 -12 16 -14 16 C-14 16.66 -14 17.32 -14 18 C-15.96466413 19.06775224 -17.96855359 20.06553465 -20 21 C-20.66 20.67 -21.32 20.34 -22 20 C-20.54712339 18.66072279 -19.08752741 17.32873153 -17.625 16 C-16.81289062 15.2575 -16.00078125 14.515 -15.1640625 13.75 C-13 12 -13 12 -11 12 C-11 11.34 -11 10.68 -11 10 C-6.52941176 6 -6.52941176 6 -4 6 C-4 5.34 -4 4.68 -4 4 C-2.70766393 2.62689293 -1.37562854 1.28965176 0 0 Z " fill="#EFC118" transform="translate(174,60)"/>
<path d="M0 0 C3.01933688 0.26255103 5.28927263 0.50984319 7.8125 2.25 C9.30406662 4.44809818 9.64715325 6.38893404 10 9 C10.66 9 11.32 9 12 9 C11.67 9.99 11.34 10.98 11 12 C8.18135316 11.6131269 6.44856991 11.35076067 4 10 C1.91877725 7.18210683 0.42555455 4.19271663 -1 1 C-0.67 0.67 -0.34 0.34 0 0 Z " fill="#FBF9E5" transform="translate(85,143)"/>
<path d="M0 0 C4.875 2.75 4.875 2.75 6 5 C4.68 5 3.36 5 2 5 C2 15.89 2 26.78 2 38 C1.67 38 1.34 38 1 38 C0.99589111 37.17798096 0.99178223 36.35596191 0.98754883 35.5090332 C0.95460757 31.77612958 0.88395896 28.04485666 0.8125 24.3125 C0.80669922 23.01892578 0.80089844 21.72535156 0.79492188 20.39257812 C0.76591797 19.14541016 0.73691406 17.89824219 0.70703125 16.61328125 C0.6913208 15.46641846 0.67561035 14.31955566 0.65942383 13.13793945 C-0.18833229 9.10380049 -1.93478604 7.66207264 -5 5 C-6.02813611 3.68824014 -7.04084432 2.3630107 -8 1 C-5.03 1.99 -2.06 2.98 1 4 C0.67 2.68 0.34 1.36 0 0 Z " fill="#FDEAA8" transform="translate(116,168)"/>
<path d="M0 0 C1.32 0 2.64 0 4 0 C4 2.64 4 5.28 4 8 C12.91 8 21.82 8 31 8 C31 8.33 31 8.66 31 9 C12.19 9.495 12.19 9.495 -7 10 C-7 9.34 -7 8.68 -7 8 C-4.69 8 -2.38 8 0 8 C0 5.36 0 2.72 0 0 Z " fill="#FED861" transform="translate(86,56)"/>
<path d="M0 0 C4.60428934 1.31551124 8.18320388 3.09196486 12 6 C12 6.66 12 7.32 12 8 C9.36 8 6.72 8 4 8 C3.67 8.99 3.34 9.98 3 11 C2.34 11 1.68 11 1 11 C0.63890458 9.35567294 0.28629924 7.7094792 -0.0625 6.0625 C-0.25972656 5.14597656 -0.45695312 4.22945312 -0.66015625 3.28515625 C-0.77230469 2.53105469 -0.88445312 1.77695313 -1 1 C-0.67 0.67 -0.34 0.34 0 0 Z " fill="#F9FDFA" transform="translate(118,172)"/>
<path d="M0 0 C0.061875 0.9075 0.12375 1.815 0.1875 2.75 C1.18446044 6.73784176 2.64888166 7.76592111 6 10 C5.67 8.02 5.34 6.04 5 4 C6.65 4.33 8.3 4.66 10 5 C10.33 3.68 10.66 2.36 11 1 C11.66 1.33 12.32 1.66 13 2 C10.69 5.96 8.38 9.92 6 14 C2.21429586 12.73809862 1.78168429 11.45144185 -0.1875 8.0625 C-0.71730469 7.16660156 -1.24710937 6.27070313 -1.79296875 5.34765625 C-3 3 -3 3 -3 1 C-1 0 -1 0 0 0 Z " fill="#F0BB23" transform="translate(93,229)"/>
<path d="M0 0 C-0.33 1.32 -0.66 2.64 -1 4 C-1.66 4 -2.32 4 -3 4 C-3.226875 4.639375 -3.45375 5.27875 -3.6875 5.9375 C-5 8 -5 8 -7.25 8.5625 C-8.1575 8.706875 -9.065 8.85125 -10 9 C-11.051875 9.53625 -12.10375 10.0725 -13.1875 10.625 C-14.115625 11.07875 -15.04375 11.5325 -16 12 C-16.66 11.67 -17.32 11.34 -18 11 C-16.44066679 9.72528295 -14.87738294 8.45539786 -13.3125 7.1875 C-12.44238281 6.47980469 -11.57226562 5.77210937 -10.67578125 5.04296875 C-4.0707457 0 -4.0707457 0 0 0 Z " fill="#F4BD13" transform="translate(160,78)"/>
<path d="M0 0 C4.39548491 -0.14536813 8.79035087 -0.23409948 13.1875 -0.3125 C14.43337891 -0.35439453 15.67925781 -0.39628906 16.96289062 -0.43945312 C26.08921929 -0.56178997 26.08921929 -0.56178997 30.34375 2.0625 C32.4205386 5.74586092 32.50899969 8.10740658 32.3125 12.3125 C32.26738281 13.56675781 32.22226563 14.82101563 32.17578125 16.11328125 C32.08876953 17.54220703 32.08876953 17.54220703 32 19 C31.67 19 31.34 19 31 19 C30.97421875 18.01257813 30.9484375 17.02515625 30.921875 16.0078125 C30.86515625 14.72648437 30.8084375 13.44515625 30.75 12.125 C30.70359375 10.84882812 30.6571875 9.57265625 30.609375 8.2578125 C30.37908519 4.91957593 30.37908519 4.91957593 28.015625 3.6171875 C27.01789063 3.31167969 27.01789063 3.31167969 26 3 C25.67 2.67 25.34 2.34 25 2 C23.14825294 1.84213692 21.2909089 1.74892644 19.43359375 1.68359375 C17.7465332 1.62075195 17.7465332 1.62075195 16.02539062 1.55664062 C14.84138672 1.51732422 13.65738281 1.47800781 12.4375 1.4375 C11.24962891 1.39431641 10.06175781 1.35113281 8.83789062 1.30664062 C5.89205216 1.20016454 2.9461257 1.09815159 0 1 C0 0.67 0 0.34 0 0 Z " fill="#FEF6C6" transform="translate(87,35)"/>
<path d="M0 0 C-0.50036582 4.37820092 -1.83174667 6.9197537 -5 10 C-7.5 10.1875 -7.5 10.1875 -10 10 C-12.128316 10.94414936 -12.128316 10.94414936 -14 12 C-4.24783862 0 -4.24783862 0 0 0 Z " fill="#FEF5C9" transform="translate(202,93)"/>
<path d="M0 0 C5.08514173 2.12866398 7.645177 4.67404402 11 9 C12.31543863 10.35099103 13.64175118 11.69205669 15 13 C14.01 13.495 14.01 13.495 13 14 C12.5875 13.525625 12.175 13.05125 11.75 12.5625 C10.10921183 10.84723373 10.10921183 10.84723373 7.875 10.5 C7.25625 10.335 6.6375 10.17 6 10 C5.67 9.01 5.34 8.02 5 7 C1.99152582 5.77479736 1.99152582 5.77479736 -1 5 C-0.67 3.35 -0.34 1.7 0 0 Z " fill="#F0C127" transform="translate(90,154)"/>
<path d="M0 0 C1.32 0 2.64 0 4 0 C4.33 0.99 4.66 1.98 5 3 C5.928125 3.0825 6.85625 3.165 7.8125 3.25 C11 4 11 4 12.75 5.6875 C14.2054569 8.38009526 15.13393472 11.06870213 16 14 C12.33620697 12.42491141 9.70148695 10.15806427 6.75 7.5 C5.85796875 6.7059375 4.9659375 5.911875 4.046875 5.09375 C2 3 2 3 2 1 C1.34 0.67 0.68 0.34 0 0 Z " fill="#F0C32E" transform="translate(96,149)"/>
<path d="M0 0 C0.5775 0.2475 1.155 0.495 1.75 0.75 C-3.25 5.75 -3.25 5.75 -5.0625 7.375 C-6.57680994 8.82561063 -6.57680994 8.82561063 -6.25 11.75 C-4.81249809 13.43798827 -4.81249809 13.43798827 -3.25 14.75 C-4.9 14.42 -6.55 14.09 -8.25 13.75 C-9.23629017 10.61180401 -9.46925401 9.22312707 -8.0625 6.1875 C-3.19736842 -0.35526316 -3.19736842 -0.35526316 0 0 Z " fill="#EEBF17" transform="translate(153.25,130.25)"/>
<path d="M0 0 C2.48422512 1.06466791 3.95042937 1.94334785 5.75 4 C8.944642 6.83968178 11.83479423 7.16695885 16 8 C16.12375 8.969375 16.2475 9.93875 16.375 10.9375 C16.58125 11.948125 16.7875 12.95875 17 14 C17.66 14.33 18.32 14.66 19 15 C18.67 15.66 18.34 16.32 18 17 C13.778704 14.34941879 10.46153196 11.63038718 7 8 C5.12097645 6.14849353 3.23876662 4.30028282 1.35546875 2.453125 C0 1 0 1 0 0 Z " fill="#F0BF2F" transform="translate(148,195)"/>
<path d="M0 0 C2.49361571 1.20381448 4.68143083 2.45428722 7 4 C7 4.66 7 5.32 7 6 C8.98 6.66 10.96 7.32 13 8 C13 8.99 13 9.98 13 11 C14.65 11.33 16.3 11.66 18 12 C18.33 13.98 18.66 15.96 19 18 C14.43165011 14.15843304 9.97580849 10.20522694 5.5625 6.1875 C5.01819336 5.69531982 4.47388672 5.20313965 3.91308594 4.69604492 C2.58907167 3.48517446 1.29182311 2.24515626 0 1 C0 0.67 0 0.34 0 0 Z " fill="#EDBF36" transform="translate(167,212)"/>
<path d="M0 0 C0.33 0.99 0.66 1.98 1 3 C0.38125 3.0825 -0.2375 3.165 -0.875 3.25 C-3.14390805 3.78597843 -3.14390805 3.78597843 -4 5.8125 C-4.33 6.534375 -4.66 7.25625 -5 8 C-7.93611172 11.56527852 -10.57033417 12.79190932 -15 14 C-13.45771856 9.59935696 -9.98573023 7.40404102 -6.375 4.75 C-5.76398438 4.29109375 -5.15296875 3.8321875 -4.5234375 3.359375 C-3.0209208 2.23248748 -1.51115591 1.11527563 0 0 Z " fill="#EEC94B" transform="translate(141,90)"/>
<path d="M0 0 C0.33 0.99 0.66 1.98 1 3 C2.32 3 3.64 3 5 3 C5 2.34 5 1.68 5 1 C6.32 1.33 7.64 1.66 9 2 C4.43966604 6.33231726 1.1796648 7.82799461 -5 9 C-3.7508258 5.54074837 -2.32472205 2.85306797 0 0 Z " fill="#FAFDF6" transform="translate(114,105)"/>
<path d="M0 0 C11.55 0 23.1 0 35 0 C35 1.65 35 3.3 35 5 C34.32042236 4.5155542 33.64084473 4.0311084 32.94067383 3.53198242 C29.39672944 1.68571833 26.93245623 1.57303098 22.94921875 1.48828125 C22.29041214 1.47033005 21.63160553 1.45237885 20.95283508 1.43388367 C18.86445369 1.38003344 16.7762974 1.34596892 14.6875 1.3125 C13.2649428 1.2793043 11.84241521 1.24481256 10.41992188 1.20898438 C6.94683085 1.12432399 3.47366087 1.0573923 0 1 C0 0.67 0 0.34 0 0 Z " fill="#F5BB11" transform="translate(81,66)"/>
<path d="M0 0 C5.18701457 0.31436452 8.5947359 3.30033267 12 7 C12 7.66 12 8.32 12 9 C13.32 9.33 14.64 9.66 16 10 C16 10.99 16 11.98 16 13 C11.70594581 12.52288287 9.89142255 10.02590732 7 7 C5.13991951 5.38405507 3.25392736 3.80495483 1.35546875 2.234375 C0.90816406 1.82703125 0.46085938 1.4196875 0 1 C0 0.67 0 0.34 0 0 Z " fill="#EBC33F" transform="translate(186,230)"/>
<path d="M0 0 C0.66 0.33 1.32 0.66 2 1 C1.34 1.66 0.68 2.32 0 3 C-0.64767793 5.57061311 -0.64767793 5.57061311 -1 8 C-1.99 8.33 -2.98 8.66 -4 9 C-5.66710346 10.49985609 -5.66710346 10.49985609 -7 12 C-8 10 -8 10 -6.875 6.5625 C-5.29914022 3.08398925 -3.60655589 1.47961267 0 0 Z " fill="#FBFAEC" transform="translate(100,118)"/>
<path d="M0 0 C0.99 0.66 1.98 1.32 3 2 C1.02 2.99 1.02 2.99 -1 4 C-1 4.66 -1 5.32 -1 6 C-2.6796875 7.7265625 -2.6796875 7.7265625 -4.875 9.625 C-5.59429687 10.25664063 -6.31359375 10.88828125 -7.0546875 11.5390625 C-9 13 -9 13 -11 13 C-11 11.68 -11 10.36 -11 9 C-10.01 8.67 -9.02 8.34 -8 8 C-7.67 7.34 -7.34 6.68 -7 6 C-6.01 6 -5.02 6 -4 6 C-3.71125 5.38125 -3.4225 4.7625 -3.125 4.125 C-2 2 -2 2 0 0 Z " fill="#FFF5DC" transform="translate(164,66)"/>
<path d="M0 0 C0 3 0 3 -1 6 C-1.9590625 6.2165625 -1.9590625 6.2165625 -2.9375 6.4375 C-5.20311706 6.80104993 -5.20311706 6.80104993 -6.25 9.0625 C-6.4975 9.701875 -6.745 10.34125 -7 11 C-8.32 11 -9.64 11 -11 11 C-11 11.99 -11 12.98 -11 14 C-12.32 13.67 -13.64 13.34 -15 13 C-13.2519799 11.3936298 -11.50168356 9.78986703 -9.75 8.1875 C-9.25886719 7.73568359 -8.76773438 7.28386719 -8.26171875 6.81835938 C-5.60492352 4.39181973 -2.92534924 2.09650029 0 0 Z " fill="#EFC341" transform="translate(191,46)"/>
<path d="M0 0 C0.99 0.33 1.98 0.66 3 1 C2.34 2.32 1.68 3.64 1 5 C1.66 5 2.32 5 3 5 C3 5.66 3 6.32 3 7 C2.01 7.66 1.02 8.32 0 9 C0.99 10.32 1.98 11.64 3 13 C2.67 13.66 2.34 14.32 2 15 C0.8274869 14.04882866 -0.33787015 13.08882991 -1.5 12.125 C-2.1496875 11.59132812 -2.799375 11.05765625 -3.46875 10.5078125 C-4.22671875 9.76144531 -4.22671875 9.76144531 -5 9 C-5 8.34 -5 7.68 -5 7 C-3.68 6.67 -2.36 6.34 -1 6 C-0.67 4.02 -0.34 2.04 0 0 Z " fill="#FCF7C6" transform="translate(85,136)"/>
<path d="M0 0 C-1.46643718 5.62134251 -1.46643718 5.62134251 -3.9375 7.375 C-6 8 -6 8 -9 8 C-9 8.66 -9 9.32 -9 10 C-9.99 10 -10.98 10 -12 10 C-10.80230322 6.40690966 -9.5323211 5.57906747 -6.5625 3.3125 C-5.75941406 2.68988281 -4.95632812 2.06726563 -4.12890625 1.42578125 C-2 0 -2 0 0 0 Z " fill="#FCF3CB" transform="translate(188,105)"/>
<path d="M0 0 C1.65 0 3.3 0 5 0 C5 0.66 5 1.32 5 2 C5.99 2 6.98 2 8 2 C9.3726682 3.97321053 10.70427617 5.97543152 12 8 C12.99 8.66 13.98 9.32 15 10 C14.67 10.66 14.34 11.32 14 12 C11.66372963 10.19117843 9.33092238 8.37818954 7 6.5625 C6.33226562 6.04623047 5.66453125 5.52996094 4.9765625 4.99804688 C3.29922866 3.68869954 1.64735006 2.34687677 0 1 C0 0.67 0 0.34 0 0 Z " fill="#FEF1C2" transform="translate(184,173)"/>
<path d="M0 0 C1.65 0 3.3 0 5 0 C5 2.31 5 4.62 5 7 C3.35 7 1.7 7 0 7 C0 4.69 0 2.38 0 0 Z " fill="#EDC143" transform="translate(79,56)"/>
<path d="M0 0 C1.65 0 3.3 0 5 0 C5 2.31 5 4.62 5 7 C3.35 7 1.7 7 0 7 C0 4.69 0 2.38 0 0 Z " fill="#E7C33B" transform="translate(113,56)"/>
<path d="M0 0 C1.65 0 3.3 0 5 0 C5 2.31 5 4.62 5 7 C3.35 7 1.7 7 0 7 C0 4.69 0 2.38 0 0 Z " fill="#E9C033" transform="translate(106,56)"/>
<path d="M0 0 C0.99 0.495 0.99 0.495 2 1 C2 1.66 2 2.32 2 3 C2.53625 3.226875 3.0725 3.45375 3.625 3.6875 C6.78500863 5.43382056 9.2676983 7.6402849 12 10 C11.01 10.33 10.02 10.66 9 11 C8.67 10.01 8.34 9.02 8 8 C6.02 8 4.04 8 2 8 C1.33333333 5.33333333 0.66666667 2.66666667 0 0 Z " fill="#FEF5CC" transform="translate(158,205)"/>
<path d="M0 0 C0.66 0.33 1.32 0.66 2 1 C1.34 2.65 0.68 4.3 0 6 C0.99 6.33 1.98 6.66 3 7 C4.38576923 8.62332967 5.72641268 10.28724465 7 12 C6.67 12.66 6.34 13.32 6 14 C4.8274869 13.04882866 3.66212985 12.08882991 2.5 11.125 C1.8503125 10.59132812 1.200625 10.05765625 0.53125 9.5078125 C-0.22671875 8.76144531 -0.22671875 8.76144531 -1 8 C-1 7.34 -1 6.68 -1 6 C-1.66 6 -2.32 6 -3 6 C-2.42655063 3.13275314 -2.1385485 2.1385485 0 0 Z " fill="#EFC03E" transform="translate(89,135)"/>
<path d="M0 0 C2.31 0 4.62 0 7 0 C4.14723863 2.93200474 1.34920216 5.64315404 -2 8 C-1.125 2.25 -1.125 2.25 0 0 Z " fill="#ECBE1D" transform="translate(89,120)"/>
<path d="M0 0 C0 3.49763204 -0.55709756 4.09835528 -2.75 6.6875 C-3.26046875 7.31011719 -3.7709375 7.93273437 -4.296875 8.57421875 C-6 10 -6 10 -10 10 C-10 9.34 -10 8.68 -10 8 C-8.38542921 6.56418526 -6.70780925 5.19855217 -5 3.875 C-4.071875 3.15054688 -3.14375 2.42609375 -2.1875 1.6796875 C-1.465625 1.12539062 -0.74375 0.57109375 0 0 Z " fill="#EFC343" transform="translate(118,110)"/>
<path d="M0 0 C1.33855056 0.78281305 2.67073644 1.57651877 4 2.375 C5.11375 3.03628906 5.11375 3.03628906 6.25 3.7109375 C6.8275 4.13632813 7.405 4.56171875 8 5 C8 5.66 8 6.32 8 7 C5.36 7 2.72 7 0 7 C0 4.69 0 2.38 0 0 Z " fill="#FDF3CF" transform="translate(122,173)"/>
<path d="M0 0 C0.99 0.33 1.98 0.66 3 1 C2.30058404 4.14737182 1.23921302 7.02588876 0 10 C-0.66 10 -1.32 10 -2 10 C-2 9.34 -2 8.68 -2 8 C-2.66 8 -3.32 8 -4 8 C-3.67 6.68 -3.34 5.36 -3 4 C-2.01 4.33 -1.02 4.66 0 5 C0 3.35 0 1.7 0 0 Z " fill="#F7C232" transform="translate(90,220)"/>
<path d="M0 0 C2.64 0.66 5.28 1.32 8 2 C8 3.32 8 4.64 8 6 C8.99 5.67 9.98 5.34 11 5 C11.33 6.65 11.66 8.3 12 10 C7.53318434 7.5635551 3.65941512 4.52231888 0 1 C0 0.67 0 0.34 0 0 Z " fill="#EEC02C" transform="translate(116,167)"/>
<path d="M0 0 C0.598125 0.309375 1.19625 0.61875 1.8125 0.9375 C4.08956772 2.10209704 4.08956772 2.10209704 7 3 C7.6875 5.0625 7.6875 5.0625 8 7 C5.25851328 6.62952882 3.41406801 6.31412056 1.1875 4.625 C0 3 0 3 0 0 Z " fill="#F5FDF9" transform="translate(109,165)"/>
<path d="M0 0 C0 3.73417994 -0.68281923 5.0848371 -3 8 C-6.6875 9.3125 -6.6875 9.3125 -10 10 C-6.66666667 6.66666667 -3.33333333 3.33333333 0 0 Z " fill="#F2C53B" transform="translate(106,120)"/>
<path d="M0 0 C2.97 0 5.94 0 9 0 C9 0.33 9 0.66 9 1 C6.36 1 3.72 1 1 1 C1.495 2.093125 1.99 3.18625 2.5 4.3125 C4 8 4 8 4 11 C2.68 10.34 1.36 9.68 0 9 C0 6.03 0 3.06 0 0 Z " fill="#FCF6C9" transform="translate(79,211)"/>
<path d="M0 0 C-1.375 1.5 -1.375 1.5 -3 3 C-3.66 3 -4.32 3 -5 3 C-5 3.66 -5 4.32 -5 5 C-6.98 5.99 -6.98 5.99 -9 7 C-8.125 2.25 -8.125 2.25 -7 0 C-2.52459016 -1.26229508 -2.52459016 -1.26229508 0 0 Z " fill="#EDBF1A" transform="translate(106,112)"/>
<path d="M0 0 C1.32 0.99 2.64 1.98 4 3 C2.64627792 5.70744416 1.14049846 7.85950154 -1 10 C-2 9 -2 9 -2.1875 6.6875 C-1.9945637 3.9220797 -1.39825155 2.35954949 0 0 Z " fill="#FCF9E3" transform="translate(194,237)"/>
<path d="M0 0 C0.66 0 1.32 0 2 0 C2.36625971 4.51720311 2.36625971 4.51720311 0.625 6.8125 C-1 8 -1 8 -3 8 C-3 8.99 -3 9.98 -3 11 C-3.66 11 -4.32 11 -5 11 C-3.55049545 7.2089881 -1.84827434 3.6125362 0 0 Z " fill="#FDEDBA" transform="translate(109,224)"/>
<path d="M0 0 C0.33 0.66 0.66 1.32 1 2 C0.525625 2.45375 0.05125 2.9075 -0.4375 3.375 C-2.09027808 4.93258204 -2.09027808 4.93258204 -3 7 C-4.6476038 7.71247732 -6.31763529 8.37400383 -8 9 C-9.34050052 9.65213539 -10.67661368 10.31379969 -12 11 C-8.42270128 6.33867137 -4.89132699 3.26088466 0 0 Z " fill="#FEECB3" transform="translate(164,124)"/>
<path d="M0 0 C1.32 0 2.64 0 4 0 C4 2.31 4 4.62 4 7 C2.68 7 1.36 7 0 7 C0 4.69 0 2.38 0 0 Z " fill="#EBBB27" transform="translate(100,56)"/>
<path d="M0 0 C1.32 0 2.64 0 4 0 C4 2.31 4 4.62 4 7 C2.68 7 1.36 7 0 7 C0 4.69 0 2.38 0 0 Z " fill="#EEB92C" transform="translate(93,56)"/>
<path d="M0 0 C1.32 0 2.64 0 4 0 C4 2.31 4 4.62 4 7 C2.68 7 1.36 7 0 7 C0 4.69 0 2.38 0 0 Z " fill="#F3B929" transform="translate(86,56)"/>
<path d="M0 0 C0.75 1.625 0.75 1.625 1 4 C-0.9375 7.25 -0.9375 7.25 -3 10 C-4.32 9.67 -5.64 9.34 -7 9 C-6.67 8.34 -6.34 7.68 -6 7 C-5.34 7.33 -4.68 7.66 -4 8 C-3.71125 7.236875 -3.4225 6.47375 -3.125 5.6875 C-2 3 -2 3 0 0 Z " fill="#FDEDAF" transform="translate(103,235)"/>
<path d="M0 0 C0 1.32 0 2.64 0 4 C-4.455 4.495 -4.455 4.495 -9 5 C-6.3784932 1.13015663 -4.82784953 0 0 0 Z " fill="#F4BC1E" transform="translate(101,129)"/>
<path d="M0 0 C1.65 0 3.3 0 5 0 C5 0.66 5 1.32 5 2 C3.03125 3.5078125 3.03125 3.5078125 0.5 5.125 C-0.3353125 5.66382812 -1.170625 6.20265625 -2.03125 6.7578125 C-2.6809375 7.16773437 -3.330625 7.57765625 -4 8 C-4 6.68 -4 5.36 -4 4 C-3.01 4 -2.02 4 -1 4 C-0.67 2.68 -0.34 1.36 0 0 Z " fill="#F2BA20" transform="translate(171,113)"/>
<path d="M0 0 C0.66 0.33 1.32 0.66 2 1 C-3.0940919 8.68490153 -3.0940919 8.68490153 -6.875 10 C-7.57625 10 -8.2775 10 -9 10 C-7.625 8 -7.625 8 -6 6 C-5.34 6 -4.68 6 -4 6 C-4 5.34 -4 4.68 -4 4 C-2.70766393 2.62689293 -1.37562854 1.28965176 0 0 Z " fill="#EBC539" transform="translate(174,60)"/>
<path d="M0 0 C3.72114571 2.31537955 6.61229661 4.28579473 9 8 C6.75 8.375 6.75 8.375 4 8 C0 3.02702703 0 3.02702703 0 0 Z " fill="#FEF5C6" transform="translate(143,192)"/>
<path d="M0 0 C1.50539661 0.94983358 3.00420347 1.91011891 4.5 2.875 C5.75296875 3.67550781 5.75296875 3.67550781 7.03125 4.4921875 C7.6809375 4.98976562 8.330625 5.48734375 9 6 C9 6.66 9 7.32 9 8 C6.07003641 7.37215066 3.48244217 6.71202908 1 5 C0.38671875 2.421875 0.38671875 2.421875 0 0 Z " fill="#FDF3C1" transform="translate(107,160)"/>
<path d="M0 0 C0.33 0 0.66 0 1 0 C1.125 3.375 1.125 3.375 1 7 C0.34 7.66 -0.32 8.32 -1 9 C-1.99 8.67 -2.98 8.34 -4 8 C-2.68 5.36 -1.36 2.72 0 0 Z " fill="#FDF7C7" transform="translate(115,215)"/>
<path d="M0 0 C-0.61277612 2.96175123 -1.25372522 4.38058783 -3 7 C-4.32 5.68 -5.64 4.36 -7 3 C-6.34 3 -5.68 3 -5 3 C-4.67 2.34 -4.34 1.68 -4 1 C-2 0 -2 0 0 0 Z " fill="#F8FBDE" transform="translate(182,162)"/>
<path d="M0 0 C0.66 0 1.32 0 2 0 C1.67 1.32 1.34 2.64 1 4 C0.34 4 -0.32 4 -1 4 C-1 8.29 -1 12.58 -1 17 C-1.33 17 -1.66 17 -2 17 C-2.05383848 14.54137599 -2.09359038 12.0839245 -2.125 9.625 C-2.14175781 8.92632812 -2.15851563 8.22765625 -2.17578125 7.5078125 C-2.19344267 5.67102514 -2.10303261 3.83398037 -2 2 C-1.34 1.34 -0.68 0.68 0 0 Z " fill="#F0BF39" transform="translate(82,37)"/>
<path d="M0 0 C2 2 2 2 2 6 C2.66 6.33 3.32 6.66 4 7 C3.360625 7.28875 2.72125 7.5775 2.0625 7.875 C-0.15206079 8.82823451 -0.15206079 8.82823451 -1 11 C-1.33 10.01 -1.66 9.02 -2 8 C-1.01 8 -0.02 8 1 8 C0.34 7.01 -0.32 6.02 -1 5 C-0.625 2.3125 -0.625 2.3125 0 0 Z " fill="#FCF8DF" transform="translate(196,32)"/>
<path d="M0 0 C1.27310312 0.93441535 2.543388 1.87267111 3.8125 2.8125 C4.52019531 3.33457031 5.22789062 3.85664063 5.95703125 4.39453125 C7.78531393 5.83128877 9.39896688 7.31815763 11 9 C7.25828935 8.49436343 5.4428972 7.88706033 3 5 C2.1646875 4.2265625 2.1646875 4.2265625 1.3125 3.4375 C0 2 0 2 0 0 Z " fill="#EEBC37" transform="translate(182,172)"/>
<path d="M0 0 C2.79872437 2.52788007 4.45773019 4.20411134 5 8 C2.69 7.34 0.38 6.68 -2 6 C-1.34 4.02 -0.68 2.04 0 0 Z " fill="#FDF4CD" transform="translate(91,234)"/>
<path d="M0 0 C0.66 0 1.32 0 2 0 C2 0.99 2 1.98 2 3 C2.66 3.33 3.32 3.66 4 4 C2.625 5.5 2.625 5.5 1 7 C0.34 7 -0.32 7 -1 7 C-1.04254356 5.00045254 -1.04080783 2.99958364 -1 1 C-0.67 0.67 -0.34 0.34 0 0 Z " fill="#FEFBDE" transform="translate(124,98)"/>
<path d="M0 0 C0.12375 0.969375 0.2475 1.93875 0.375 2.9375 C0.684375 4.4534375 0.684375 4.4534375 1 6 C1.66 6.33 2.32 6.66 3 7 C2.67 8.32 2.34 9.64 2 11 C1.16121545 9.71186658 0.32913217 8.41936744 -0.5 7.125 C-0.9640625 6.40570313 -1.428125 5.68640625 -1.90625 4.9453125 C-3 3 -3 3 -3 1 C-1 0 -1 0 0 0 Z " fill="#ECC02E" transform="translate(93,229)"/>
<path d="M0 0 C0.99 0 1.98 0 3 0 C3.12375 0.639375 3.2475 1.27875 3.375 1.9375 C3.684375 2.9584375 3.684375 2.9584375 4 4 C4.66 4.33 5.32 4.66 6 5 C4.68 5.33 3.36 5.66 2 6 C1.01 4.35 0.02 2.7 -1 1 C-0.67 0.67 -0.34 0.34 0 0 Z " fill="#FCFCF7" transform="translate(85,143)"/>
<path d="M0 0 C0.99 0.66 1.98 1.32 3 2 C3 2.99 3 3.98 3 5 C1.02 5 -0.96 5 -3 5 C-1.125 1.125 -1.125 1.125 0 0 Z " fill="#FBFCF9" transform="translate(87,130)"/>
<path d="M0 0 C-1.47692308 4.67692308 -1.47692308 4.67692308 -4.125 6.3125 C-5.053125 6.6528125 -5.053125 6.6528125 -6 7 C-5.39816251 4.97954558 -4.72693904 2.97888961 -4 1 C-2 0 -2 0 0 0 Z " fill="#ECBC1A" transform="translate(199,92)"/>
<path d="M0 0 C2.64 1.98 5.28 3.96 8 6 C6 7 6 7 2.875 6.0625 C1.92625 5.711875 0.9775 5.36125 0 5 C0 3.35 0 1.7 0 0 Z " fill="#EDBB25" transform="translate(108,170)"/>
<path d="M0 0 C0 0.66 0 1.32 0 2 C-0.99 2.495 -0.99 2.495 -2 3 C-2.65555119 5.52733235 -2.65555119 5.52733235 -3 8 C-3.99 7.67 -4.98 7.34 -6 7 C-5.37162381 3.35541809 -4.14650034 0 0 0 Z " fill="#FDEBA8" transform="translate(152,135)"/>
<path d="M0 0 C5.875 3.625 5.875 3.625 7 7 C4.69 6.34 2.38 5.68 0 5 C0 3.35 0 1.7 0 0 Z " fill="#FDEDBD" transform="translate(176,221)"/>
<path d="M0 0 C1.32 0 2.64 0 4 0 C4.33 0.99 4.66 1.98 5 3 C5.99 3.33 6.98 3.66 8 4 C7.67 4.99 7.34 5.98 7 7 C5.83040013 6.02433888 4.66438823 5.044375 3.5 4.0625 C2.8503125 3.51722656 2.200625 2.97195312 1.53125 2.41015625 C1.0259375 1.94480469 0.520625 1.47945312 0 1 C0 0.67 0 0.34 0 0 Z " fill="#EAC036" transform="translate(140,188)"/>
<path d="M0 0 C1.65 0.33 3.3 0.66 5 1 C3.68 2.65 2.36 4.3 1 6 C0.34 5.67 -0.32 5.34 -1 5 C-0.67 3.35 -0.34 1.7 0 0 Z " fill="#F2BD2E" transform="translate(187,99)"/>
<path d="M0 0 C1.65 0 3.3 0 5 0 C3.35 1.98 1.7 3.96 0 6 C-1.125 2.25 -1.125 2.25 0 0 Z " fill="#FEF7D3" transform="translate(189,43)"/>
<path d="M0 0 C1.32 0.33 2.64 0.66 4 1 C1.69 2.65 -0.62 4.3 -3 6 C-3.33 4.68 -3.66 3.36 -4 2 C-2.68 2 -1.36 2 0 2 C0 1.34 0 0.68 0 0 Z " fill="#FEF7D5" transform="translate(119,106)"/>
<path d="M0 0 C0.66 0.99 1.32 1.98 2 3 C0.35 3.33 -1.3 3.66 -3 4 C-3 4.66 -3 5.32 -3 6 C-3.99 5.67 -4.98 5.34 -6 5 C-4.68 4.34 -3.36 3.68 -2 3 C-2 2.34 -2 1.68 -2 1 C-1.34 0.67 -0.68 0.34 0 0 Z " fill="#F2C53B" transform="translate(198,40)"/>
<path d="M0 0 C0.33 1.32 0.66 2.64 1 4 C-0.96466413 5.06775224 -2.96855359 6.06553465 -5 7 C-5.66 6.67 -6.32 6.34 -7 6 C-4.69 4.02 -2.38 2.04 0 0 Z " fill="#EDC243" transform="translate(159,74)"/>
<path d="M0 0 C-1.28965176 1.37562854 -2.62689293 2.70766393 -4 4 C-4.66 4 -5.32 4 -6 4 C-6 2.68 -6 1.36 -6 0 C-3 -1 -3 -1 0 0 Z " fill="#FEF4C1" transform="translate(159,75)"/>
<path d="M0 0 C1.98 0 3.96 0 6 0 C4 3 4 3 1.375 3.6875 C0.199375 3.8421875 0.199375 3.8421875 -1 4 C-0.67 2.68 -0.34 1.36 0 0 Z " fill="#EEBE0C" transform="translate(84,37)"/>
</svg>
